<svg width="102" height="68" viewBox="0 0 102 68" fill="none" xmlns="http://www.w3.org/2000/svg">
<path d="M58.2104 43H61.3304V58H58.1954L58.0754 55.825C57.6354 56.595 57.0404 57.215 56.2904 57.685C55.5404 58.155 54.6554 58.39 53.6354 58.39C52.5354 58.39 51.5004 58.185 50.5304 57.775C49.5604 57.355 48.7054 56.775 47.9654 56.035C47.2354 55.295 46.6654 54.445 46.2554 53.485C45.8454 52.515 45.6404 51.475 45.6404 50.365C45.6404 49.295 45.8404 48.29 46.2404 47.35C46.6404 46.4 47.1954 45.57 47.9054 44.86C48.6154 44.15 49.4354 43.595 50.3654 43.195C51.3054 42.785 52.3104 42.58 53.3804 42.58C54.4704 42.58 55.4304 42.83 56.2604 43.33C57.1004 43.82 57.7954 44.45 58.3454 45.22L58.2104 43ZM53.5604 55.375C54.4404 55.375 55.2104 55.16 55.8704 54.73C56.5304 54.29 57.0404 53.7 57.4004 52.96C57.7704 52.22 57.9554 51.4 57.9554 50.5C57.9554 49.59 57.7704 48.765 57.4004 48.025C57.0304 47.285 56.5154 46.7 55.8554 46.27C55.2054 45.83 54.4404 45.61 53.5604 45.61C52.6904 45.61 51.8954 45.83 51.1754 46.27C50.4554 46.71 49.8854 47.3 49.4654 48.04C49.0454 48.78 48.8354 49.6 48.8354 50.5C48.8354 51.41 49.0504 52.235 49.4804 52.975C49.9204 53.705 50.4954 54.29 51.2054 54.73C51.9254 55.16 52.7104 55.375 53.5604 55.375ZM78.0236 48.595V58H74.9036V49.36C74.9036 48.69 74.7386 48.08 74.4086 47.53C74.0886 46.98 73.6536 46.545 73.1036 46.225C72.5636 45.895 71.9536 45.73 71.2736 45.73C70.6136 45.73 70.0086 45.895 69.4586 46.225C68.9086 46.545 68.4686 46.98 68.1386 47.53C67.8086 48.08 67.6436 48.69 67.6436 49.36V58H64.5236V43H67.6436V44.59C68.1636 43.97 68.8036 43.48 69.5636 43.12C70.3236 42.76 71.1436 42.58 72.0236 42.58C73.1336 42.58 74.1436 42.85 75.0536 43.39C75.9636 43.93 76.6836 44.655 77.2136 45.565C77.7536 46.475 78.0236 47.485 78.0236 48.595ZM92.3398 43H95.4598V58.39C95.4598 59.42 95.2398 60.37 94.7998 61.24C94.3698 62.11 93.7848 62.86 93.0448 63.49C92.3048 64.13 91.4548 64.625 90.4948 64.975C89.5448 65.325 88.5498 65.5 87.5098 65.5C86.4598 65.5 85.4498 65.275 84.4798 64.825C83.5098 64.385 82.6548 63.785 81.9148 63.025C81.1848 62.265 80.6398 61.405 80.2798 60.445L83.1448 59.155C83.3448 59.775 83.6648 60.325 84.1048 60.805C84.5548 61.285 85.0748 61.665 85.6648 61.945C86.2648 62.225 86.8798 62.365 87.5098 62.365C88.1298 62.365 88.7248 62.265 89.2948 62.065C89.8748 61.875 90.3898 61.605 90.8398 61.255C91.2998 60.905 91.6648 60.485 91.9348 59.995C92.2048 59.505 92.3398 58.97 92.3398 58.39V55.855C91.8498 56.615 91.2198 57.23 90.4498 57.7C89.6798 58.16 88.7848 58.39 87.7648 58.39C86.7048 58.39 85.7048 58.185 84.7648 57.775C83.8248 57.365 82.9998 56.8 82.2898 56.08C81.5798 55.35 81.0248 54.51 80.6248 53.56C80.2248 52.61 80.0248 51.59 80.0248 50.5C80.0248 49.41 80.2248 48.39 80.6248 47.44C81.0248 46.48 81.5798 45.64 82.2898 44.92C82.9998 44.19 83.8248 43.62 84.7648 43.21C85.7048 42.8 86.7048 42.595 87.7648 42.595C88.7848 42.595 89.6798 42.83 90.4498 43.3C91.2198 43.76 91.8498 44.375 92.3398 45.145V43ZM87.7948 55.375C88.6648 55.375 89.4248 55.155 90.0748 54.715C90.7248 54.265 91.2298 53.67 91.5898 52.93C91.9498 52.19 92.1298 51.38 92.1298 50.5C92.1298 49.6 91.9448 48.785 91.5748 48.055C91.2148 47.315 90.7098 46.725 90.0598 46.285C89.4098 45.835 88.6548 45.61 87.7948 45.61C86.9548 45.61 86.1848 45.83 85.4848 46.27C84.7948 46.71 84.2448 47.3 83.8348 48.04C83.4248 48.78 83.2198 49.6 83.2198 50.5C83.2198 51.4 83.4248 52.22 83.8348 52.96C84.2548 53.7 84.8098 54.29 85.4998 54.73C86.1998 55.16 86.9648 55.375 87.7948 55.375Z" fill="black"/>
<path d="M25.3529 28.39C23.9729 28.39 22.7129 28.035 21.5729 27.325C20.4429 26.615 19.5379 25.665 18.8579 24.475C18.1879 23.275 17.8529 21.95 17.8529 20.5C17.8529 19.4 18.0479 18.375 18.4379 17.425C18.8279 16.465 19.3629 15.625 20.0429 14.905C20.7329 14.175 21.5329 13.605 22.4429 13.195C23.3529 12.785 24.3229 12.58 25.3529 12.58C26.5029 12.58 27.5579 12.82 28.5179 13.3C29.4779 13.77 30.2979 14.425 30.9779 15.265C31.6579 16.095 32.1579 17.055 32.4779 18.145C32.7979 19.225 32.8929 20.375 32.7629 21.595H21.1979C21.3279 22.285 21.5779 22.91 21.9479 23.47C22.3279 24.02 22.8079 24.455 23.3879 24.775C23.9779 25.095 24.6329 25.26 25.3529 25.27C26.1129 25.27 26.8029 25.08 27.4229 24.7C28.0529 24.32 28.5679 23.795 28.9679 23.125L32.1329 23.86C31.5329 25.19 30.6279 26.28 29.4179 27.13C28.2079 27.97 26.8529 28.39 25.3529 28.39ZM21.0929 19.21H29.6129C29.5129 18.49 29.2579 17.84 28.8479 17.26C28.4479 16.67 27.9429 16.205 27.3329 15.865C26.7329 15.515 26.0729 15.34 25.3529 15.34C24.6429 15.34 23.9829 15.51 23.3729 15.85C22.7729 16.19 22.2729 16.655 21.8729 17.245C21.4829 17.825 21.2229 18.48 21.0929 19.21ZM35.4471 28V13H38.5671V14.59C39.0871 13.97 39.7271 13.48 40.4871 13.12C41.2471 12.76 42.0671 12.58 42.9471 12.58C43.5071 12.58 44.0621 12.655 44.6121 12.805L43.3671 15.955C42.9771 15.805 42.5871 15.73 42.1971 15.73C41.5371 15.73 40.9321 15.895 40.3821 16.225C39.8321 16.545 39.3921 16.98 39.0621 17.53C38.7321 18.08 38.5671 18.69 38.5671 19.36V28H35.4471ZM60.1627 18.595V28H57.0427V19.36C57.0427 18.69 56.8777 18.08 56.5477 17.53C56.2277 16.98 55.7927 16.545 55.2427 16.225C54.7027 15.895 54.0927 15.73 53.4127 15.73C52.7527 15.73 52.1477 15.895 51.5977 16.225C51.0477 16.545 50.6077 16.98 50.2777 17.53C49.9477 18.08 49.7827 18.69 49.7827 19.36V28H46.6627V13H49.7827V14.59C50.3027 13.97 50.9427 13.48 51.7027 13.12C52.4627 12.76 53.2827 12.58 54.1627 12.58C55.2727 12.58 56.2827 12.85 57.1927 13.39C58.1027 13.93 58.8227 14.655 59.3527 15.565C59.8927 16.475 60.1627 17.485 60.1627 18.595ZM74.7339 13H77.8539V28H74.7189L74.5989 25.825C74.1589 26.595 73.5639 27.215 72.8139 27.685C72.0639 28.155 71.1789 28.39 70.1589 28.39C69.0589 28.39 68.0239 28.185 67.0539 27.775C66.0839 27.355 65.2289 26.775 64.4889 26.035C63.7589 25.295 63.1889 24.445 62.7789 23.485C62.3689 22.515 62.1639 21.475 62.1639 20.365C62.1639 19.295 62.3639 18.29 62.7639 17.35C63.1639 16.4 63.7189 15.57 64.4289 14.86C65.1389 14.15 65.9589 13.595 66.8889 13.195C67.8289 12.785 68.8339 12.58 69.9039 12.58C70.9939 12.58 71.9539 12.83 72.7839 13.33C73.6239 13.82 74.3189 14.45 74.8689 15.22L74.7339 13ZM70.0839 25.375C70.9639 25.375 71.7339 25.16 72.3939 24.73C73.0539 24.29 73.5639 23.7 73.9239 22.96C74.2939 22.22 74.4789 21.4 74.4789 20.5C74.4789 19.59 74.2939 18.765 73.9239 18.025C73.5539 17.285 73.0389 16.7 72.3789 16.27C71.7289 15.83 70.9639 15.61 70.0839 15.61C69.2139 15.61 68.4189 15.83 67.6989 16.27C66.9789 16.71 66.4089 17.3 65.9889 18.04C65.5689 18.78 65.3589 19.6 65.3589 20.5C65.3589 21.41 65.5739 22.235 66.0039 22.975C66.4439 23.705 67.0189 24.29 67.7289 24.73C68.4489 25.16 69.2339 25.375 70.0839 25.375Z" fill="black"/>
<path d="M4 5L4 34" stroke="#0601B4" stroke-width="8" stroke-linecap="round"/>
<path d="M35 34L4 34" stroke="#0601B4" stroke-width="8" stroke-linecap="round"/>
<path d="M35.0001 34L35.0001 63.9999" stroke="#0601B4" stroke-width="8" stroke-linecap="round"/>
<path d="M65 64L35 64" stroke="#0601B4" stroke-width="8" stroke-linecap="round"/>
</svg>
