<?xml version="1.0" encoding="iso-8859-1"?>
<!-- Uploaded to: SVG Repo, www.svgrepo.com, Generator: SVG Repo Mixer Tools -->
<svg fill="#000000" height="800px" width="800px" version="1.1" id="Layer_1" xmlns="http://www.w3.org/2000/svg" xmlns:xlink="http://www.w3.org/1999/xlink" 
	 viewBox="0 0 508 508" xml:space="preserve">
<g>
	<g>
		<path d="M439.6,24.4c-42-6.3-99.6-9.3-159.1-8.1c-49.7,1-94.7,5.1-125.8,11.2C139.1,5.1,120,0,106,0C90.8,0,74.4,5.5,56,16.8
			c-10.3,3.8-24.9,0.9-31.9-6.2C20.1,6.5,14,5.3,8.7,7.5C3.5,9.6,0,14.8,0,20.5c0,53,44.7,99.5,95.6,99.5c10.2,0,42,0,59.7-28.7
			c31.1,6.1,75.9,10.2,125.2,11.1c78.5,1.3,104.7,1,159.1-8.1c48.4-8.2,68.4-17.5,68.4-35S488.2,31.7,439.6,24.4z M134,72
			c-10.4,19.1-31.5,19.7-38.4,19.7c-27.1,0-52.3-20.1-62.6-46.3c24.7,4,36.2-3.5,36.9-4c14-8.8,26.2-13.2,36.1-13.2
			c7.3,0,17.9,2.1,28,19.1V72z M281.1,74.2c-47-1-89.5-4.6-118.9-10.2v-9.4h0c29.4-5.6,71.8-9.3,118.9-10.2
			c8.4-0.2,130.6-8.1,188.8,14.9C413.9,81.9,289.5,74.3,281.1,74.2z"/>
	</g>
</g>
<g>
	<g>
		<path d="M457.1,169.7c-17-19.4-42.2-30.6-69.1-30.6c-36.2,0-67.9,19.8-80.7,50.5c-14.2,33.9-48,51.7-88.4,45.9
			c-23.2-3.3-41.7-13.1-53.5-28.2C148.4,185.5,122,173,93,173c-78.9,0-88.6,74.4-90.3,84.1C-6,307,6.7,358.4,38.3,402
			C78,456.7,144.6,508,261.1,508c123.6,0,226.3-74.7,244.2-177.6C515.1,273.6,498,216.6,457.1,169.7z M477.5,325.5
			C462,414.9,371,479.8,261.1,479.8c-100.4,0-164.8-45.8-200-94.4c-27.1-37.3-38-81.2-30.6-123.5c1.4-8.2,8.3-60.7,62.5-60.7
			c20.2,0,38.5,8.6,50.2,23.5c16.4,21,41.2,34.4,71.7,38.8c53.4,7.7,99.1-16.9,118.4-62.9c8.5-20.2,29.9-33.2,54.7-33.2
			c18.8,0,36.3,7.6,47.9,20.9C471.1,228.6,485.8,277.4,477.5,325.5z"/>
	</g>
</g>
<g>
	<g>
		<path d="M399.1,210.6c-23.9,0-43.4,19.5-43.4,43.4c0,23.9,19.5,43.4,43.4,43.4c23.9,0,43.4-19.5,43.4-43.4
			C442.5,230.1,423,210.6,399.1,210.6z M399.1,269.2c-8.4,0-15.2-6.8-15.2-15.2s6.8-15.2,15.2-15.2s15.2,6.8,15.2,15.2
			C414.3,262.4,407.5,269.2,399.1,269.2z"/>
	</g>
</g>
<g>
	<g>
		<path d="M340.6,328c-23.9,0-43.4,19.5-43.4,43.4c0,23.9,19.5,43.4,43.4,43.4c23.9,0,43.4-19.5,43.4-43.4
			C383.9,347.4,364.5,328,340.6,328z M340.6,386.5c-8.4,0-15.2-6.8-15.2-15.2s6.8-15.2,15.2-15.2s15.2,6.8,15.2,15.2
			C355.7,379.7,348.9,386.5,340.6,386.5z"/>
	</g>
</g>
<g>
	<g>
		<path d="M204.1,341.9c-23.9,0-43.4,19.5-43.4,43.4c0,23.9,19.5,43.4,43.4,43.4c23.9,0,43.4-19.5,43.4-43.4
			C247.4,361.3,228,341.9,204.1,341.9z M204.1,400.4c-8.4,0-15.2-6.8-15.2-15.2c0-8.4,6.8-15.2,15.2-15.2c8.4,0,15.2,6.8,15.2,15.2
			C219.2,393.6,212.4,400.4,204.1,400.4z"/>
	</g>
</g>
<g>
	<g>
		<path d="M95.8,263.9c-23.9,0-43.4,19.5-43.4,43.4c0,23.9,19.5,43.4,43.4,43.4c23.9,0,43.4-19.5,43.4-43.4
			C139.2,283.4,119.8,263.9,95.8,263.9z M95.8,322.5c-8.4,0-15.2-6.8-15.2-15.2s6.8-15.2,15.2-15.2c8.4,0,15.2,6.8,15.2,15.2
			S104.2,322.5,95.8,322.5z"/>
	</g>
</g>
</svg>