<?xml version="1.0" encoding="utf-8"?>

<!DOCTYPE svg PUBLIC "-//W3C//DTD SVG 1.1//EN" "http://www.w3.org/Graphics/SVG/1.1/DTD/svg11.dtd">
<!-- Uploaded to: SVG Repo, www.svgrepo.com, Generator: SVG Repo Mixer Tools -->
<svg height="800px" width="800px" version="1.1" id="_x32_" xmlns="http://www.w3.org/2000/svg" xmlns:xlink="http://www.w3.org/1999/xlink" 
	 viewBox="0 0 512 512"  xml:space="preserve">
<style type="text/css">
	.st0{fill:#000000;}
</style>
<g>
	<path class="st0" d="M480.925,279.697c-11.272-12.285-32.272-9.672-46.316,0.716c-12.834,10.695-100.573,68.357-100.573,68.357
		H227.397l-0.336,0.168c-5.617-0.186-10.006-4.902-9.84-10.509c0.205-5.618,4.93-10.017,10.51-9.822l-0.335-0.195
		c19.065,0,78.569,0,78.569,0c15.773,0,28.571-12.779,28.571-28.542c0-15.792-12.798-28.58-28.571-28.58
		c-14.285,0-42.838,0-114.246,0c-71.427,0-94.045,29.771-119.044,54.751l-45.348,39.62c-2.958,2.567-4.65,6.259-4.65,10.184V507.51
		c0,1.739,1.042,3.348,2.641,4.083c1.6,0.726,3.479,0.474,4.818-0.688l87.646-75.147c3.088-2.623,7.217-3.739,11.198-3.023
		l136.604,24.832c9.523,1.73,19.326-0.455,27.268-6.044c0,0,174.326-121.23,187.216-131.954
		C492.327,308.315,492.197,291.983,480.925,279.697z"/>
	<path class="st0" d="M216.627,218.333c21.521,14.742,48.604,25.548,48.604,25.548c2.492,0.81,6.343,1.516,7.682,1.516
		c1.321,0,5.171-0.706,7.664-1.516c0,0,27.064-10.806,48.603-25.548c32.774-22.34,85.935-66.191,85.935-128.01
		c0-62.703-35.472-91.116-74.495-90.306c-29.761,0.539-47.339,18.126-59.132,35.462c-2.158,3.218-5.376,5.273-8.575,5.357
		c-3.218-0.084-6.436-2.139-8.575-5.357c-11.793-17.336-29.389-34.923-59.15-35.462c-39.043-0.81-74.477,27.603-74.477,90.306
		C130.711,152.142,183.852,195.994,216.627,218.333z M187.368,39.282c2.994-3.673,6.733-6.788,11.011-9.384
		c4.223-2.548,9.71-1.2,12.258,3.023c2.568,4.222,1.209,9.719-3.014,12.258c-2.808,1.711-4.873,3.497-6.399,5.384
		c-3.106,3.832-8.742,4.399-12.574,1.284C184.838,48.732,184.262,43.115,187.368,39.282z M166.442,96.192
		c0-5.97,0.614-11.513,1.934-16.61c1.246-4.781,6.139-7.636,10.901-6.38c4.78,1.237,7.625,6.12,6.398,10.89
		c-0.874,3.311-1.376,7.347-1.376,12.1c0,4.706,0.484,10.119,1.506,16.183c1.637,9.71,5.767,18.731,11.811,27.203
		c2.865,4.008,1.935,9.588-2.083,12.453c-4.036,2.864-9.598,1.934-12.462-2.083c-7.31-10.203-12.723-21.791-14.881-34.597
		C167.037,108.488,166.442,102.126,166.442,96.192z"/>
</g>
</svg>