<svg width="30" height="33" viewBox="0 0 30 33" fill="none" xmlns="http://www.w3.org/2000/svg">
<path d="M5.95455 15H25.0455C25.2986 15 25.5414 15.1054 25.7204 15.2929C25.8994 15.4804 26 15.7348 26 16C26 16.2652 25.8994 16.5196 25.7204 16.7071C25.5414 16.8946 25.2986 17 25.0455 17H5.95455C5.70138 17 5.45859 16.8946 5.27958 16.7071C5.10057 16.5196 5 16.2652 5 16C5 15.7348 5.10057 15.4804 5.27958 15.2929C5.45859 15.1054 5.70138 15 5.95455 15Z" fill="black"/>
<path d="M6.19556 16L13.7335 25.12C13.9041 25.3266 14 25.6067 14 25.8988C14 26.1908 13.9041 26.4709 13.7335 26.6775C13.5628 26.884 13.3314 27 13.09 27C12.8487 27 12.6172 26.884 12.4466 26.6775L4.26701 16.7787C4.18237 16.6765 4.11522 16.5552 4.0694 16.4215C4.02358 16.2879 4 16.1447 4 16C4 15.8553 4.02358 15.7121 4.0694 15.5785C4.11522 15.4448 4.18237 15.3235 4.26701 15.2213L12.4466 5.32255C12.6172 5.11602 12.8487 5 13.09 5C13.3314 5 13.5628 5.11602 13.7335 5.32255C13.9041 5.52907 14 5.80918 14 6.10125C14 6.39332 13.9041 6.67343 13.7335 6.87995L6.19556 16Z" fill="black"/>
</svg>
