<svg width="32" height="34" viewBox="0 0 32 34" fill="none" xmlns="http://www.w3.org/2000/svg">
<path fill-rule="evenodd" clip-rule="evenodd" d="M25.6094 8.79325C25.8522 8.52607 25.9866 8.16821 25.9836 7.79677C25.9806 7.42532 25.8403 7.07 25.5931 6.80734C25.3459 6.54468 25.0115 6.39569 24.6619 6.39246C24.3123 6.38924 23.9755 6.53203 23.724 6.79009L16 14.9968L8.27603 6.79009C8.02456 6.53203 7.68775 6.38924 7.33816 6.39246C6.98856 6.39569 6.65415 6.54468 6.40694 6.80734C6.15972 7.07 6.0195 7.42532 6.01646 7.79677C6.01342 8.16821 6.14782 8.52607 6.39069 8.79325L14.1147 17L6.39069 25.2068C6.26335 25.3374 6.16177 25.4938 6.09189 25.6666C6.02201 25.8394 5.98523 26.0253 5.98369 26.2134C5.98215 26.4015 6.01589 26.5881 6.08293 26.7622C6.14997 26.9363 6.24898 27.0945 6.37417 27.2275C6.49936 27.3605 6.64823 27.4657 6.81209 27.5369C6.97595 27.6081 7.15152 27.644 7.32856 27.6424C7.5056 27.6407 7.68056 27.6016 7.84323 27.5274C8.0059 27.4531 8.15303 27.3452 8.27603 27.2099L16 19.0032L23.724 27.2099C23.9755 27.468 24.3123 27.6108 24.6619 27.6075C25.0115 27.6043 25.3459 27.4553 25.5931 27.1927C25.8403 26.93 25.9806 26.5747 25.9836 26.2032C25.9866 25.8318 25.8522 25.4739 25.6094 25.2068L17.8854 17L25.6094 8.79325Z" fill="black"/>
</svg>
