<svg width="34" height="31" viewBox="0 0 34 31" fill="none" xmlns="http://www.w3.org/2000/svg">
<path fill-rule="evenodd" clip-rule="evenodd" d="M14.1667 7.74998C14.1667 6.32324 15.4352 5.16665 17 5.16665C18.5649 5.16665 19.8334 6.32324 19.8334 7.74998H18.4167C17.6343 7.74998 17 8.32828 17 9.04165C17 9.75501 17.6343 10.3333 18.4167 10.3333H19.8334V12.9166H18.4167C17.6343 12.9166 17 13.4949 17 14.2083C17 14.9217 17.6343 15.5 18.4167 15.5H19.8334V16.7916C19.8334 18.2184 18.5649 19.375 17 19.375C15.4352 19.375 14.1667 18.2184 14.1667 16.7916V7.74998ZM17 2.58331C13.8704 2.58331 11.3334 4.89651 11.3334 7.74998V16.7916C11.3334 19.6451 13.8704 21.9583 17 21.9583C20.1296 21.9583 22.6667 19.6451 22.6667 16.7916V14.2083V9.04165V7.74998C22.6667 4.89651 20.1296 2.58331 17 2.58331ZM9.91671 14.2083C9.91671 13.4949 9.28244 12.9166 8.50004 12.9166C7.71764 12.9166 7.08337 13.4949 7.08337 14.2083V16.7916C7.08337 21.3467 10.7776 25.115 15.5834 25.7417V27.125H11.3334C10.551 27.125 9.91671 27.7033 9.91671 28.4166C9.91671 29.13 10.551 29.7083 11.3334 29.7083H17H22.6667C23.4491 29.7083 24.0834 29.13 24.0834 28.4166C24.0834 27.7033 23.4491 27.125 22.6667 27.125H18.4167V25.7417C23.2225 25.115 26.9167 21.3467 26.9167 16.7916V14.2083C26.9167 13.4949 26.2825 12.9166 25.5 12.9166C24.7176 12.9166 24.0834 13.4949 24.0834 14.2083V16.7916C24.0834 20.3585 20.912 23.25 17 23.25C13.088 23.25 9.91671 20.3585 9.91671 16.7916V14.2083Z" fill="black"/>
</svg>
