<svg width="34" height="34" viewBox="0 0 34 34" fill="none" xmlns="http://www.w3.org/2000/svg">
<path d="M28.8008 5.1991C28.5328 4.933 28.1966 4.74593 27.8293 4.65845C27.462 4.57099 27.0775 4.58649 26.7183 4.70326L5.99251 11.6166C5.60813 11.7384 5.26847 11.9714 5.01641 12.2861C4.76436 12.6008 4.61123 12.9832 4.57637 13.3849C4.5415 13.7866 4.62646 14.1896 4.82052 14.5431C5.01458 14.8965 5.30902 15.1845 5.66668 15.3708L14.2658 19.6208L18.5158 28.2483C18.6867 28.5859 18.9481 28.8695 19.2708 29.0672C19.5935 29.2648 19.965 29.3688 20.3433 29.3675H20.485C20.8903 29.3376 21.2772 29.1866 21.5955 28.9338C21.9139 28.6813 22.1489 28.3387 22.27 27.9508L29.2825 7.2816C29.4077 6.9245 29.429 6.53918 29.3437 6.17049C29.2584 5.80182 29.0702 5.46495 28.8008 5.1991ZM6.87084 13.5716L24.9617 7.5366L14.9175 17.5808L6.87084 13.5716ZM20.4425 27.1292L16.4192 19.0825L26.4633 9.03826L20.4425 27.1292Z" fill="black"/>
</svg>
