<?xml version="1.0" encoding="utf-8"?>

<!DOCTYPE svg PUBLIC "-//W3C//DTD SVG 1.1//EN" "http://www.w3.org/Graphics/SVG/1.1/DTD/svg11.dtd">
<!-- Uploaded to: SVG Repo, www.svgrepo.com, Generator: SVG Repo Mixer Tools -->
<svg height="800px" width="800px" version="1.1" id="_x32_" xmlns="http://www.w3.org/2000/svg" xmlns:xlink="http://www.w3.org/1999/xlink" 
	 viewBox="0 0 512 512"  xml:space="preserve">
<style type="text/css">
	.st0{fill:#000000;}
</style>
<g>
	<path class="st0" d="M264.141,416.896L14.646,205.121L0,222.387l249.53,211.791l0.036,0.032
		c28.359,23.865,64.362,37,101.444,37.008h159.915v-22.639H351.01C319.297,448.578,288.402,437.326,264.141,416.896z"/>
	<path class="st0" d="M351.01,425.948c0,0,63.721,0,120.309,0c56.587,0,48.101-56.591,11.318-65.074
		c-24.818-5.728-56.682-18.895-56.682-18.895c-12.577-4.194-22.875-13.389-28.442-25.4c0,0-1.377-2.92-3.688-7.834l-46.194,13.966
		c-5.048,1.528-10.381-1.322-11.908-6.369c-1.519-5.048,1.326-10.382,6.374-11.901l43.528-13.167
		c-3.743-7.975-8.083-17.241-12.656-27.021l-43.171,13.064c-5.049,1.528-10.382-1.345-11.909-6.377
		c-1.531-5.049,1.338-10.382,6.373-11.908l40.529-12.257c-4.312-9.258-8.601-18.476-12.574-27.046l-40.255,12.185
		c-5.049,1.52-10.382-1.33-11.912-6.377c-1.515-5.049,1.329-10.382,6.378-11.901l37.708-11.41
		c-5.405-11.766-9.326-20.486-10.37-23.192c-4.538-11.798-14.504-44.525-37.245-26.334c-37.391,29.934-105.602,21.158-123.212-11.56
		c-13.202-24.522-5.654-50.926,0-71.674c4.526-16.584-18.868-42.443-35.837-19.805C125.464,65.66,24.296,185.458,24.296,185.458
		L278.72,399.575C298.961,416.611,324.559,425.948,351.01,425.948z"/>
</g>
</svg>