<?xml version="1.0" encoding="utf-8"?>

<!DOCTYPE svg PUBLIC "-//W3C//DTD SVG 1.1//EN" "http://www.w3.org/Graphics/SVG/1.1/DTD/svg11.dtd">
<!-- Uploaded to: SVG Repo, www.svgrepo.com, Generator: SVG Repo Mixer Tools -->
<svg height="800px" width="800px" version="1.1" id="_x32_" xmlns="http://www.w3.org/2000/svg" xmlns:xlink="http://www.w3.org/1999/xlink" 
	 viewBox="0 0 512 512"  xml:space="preserve">
<style type="text/css">
	.st0{fill:#000000;}
</style>
<g>
	<path class="st0" d="M0,158.388v279.143c0,19.266,15.624,34.905,34.936,34.905h43.628V123.483H34.936
		C15.624,123.483,0,139.092,0,158.388z"/>
	<path class="st0" d="M477.095,123.483h-43.628v348.954h43.628c19.28,0,34.905-15.64,34.905-34.905V158.388
		C512,139.092,496.375,123.483,477.095,123.483z"/>
	<path class="st0" d="M179.44,190.886c-3.42,3.42-3.42,8.966,0,12.379c3.421,3.421,8.959,3.421,12.379,0
		c3.421-3.413,3.421-8.958,0-12.379C188.399,187.473,182.86,187.473,179.44,190.886z"/>
	<path class="st0" d="M354.469,68.062c0-15.723-12.813-28.498-28.498-28.498H186.06c-15.716,0-28.499,12.775-28.499,28.498v55.42
		h-44.092v348.954h285.093V123.483h-44.093V68.062z M285.52,253.757l-43.217,43.216c-4.563,4.556-11.952,4.556-16.516,0
		l-66.968-66.969c-2.187-2.194-3.421-5.166-3.421-8.258v-43.225c0-6.444,5.234-11.671,11.679-11.671h43.216
		c3.101,0,6.071,1.227,8.266,3.421l66.962,66.969C290.074,241.796,290.074,249.193,285.52,253.757z M319.556,123.483H192.474V74.484
		h127.082V123.483z"/>
</g>
</svg>